<svg width="24" height="24" viewBox="0 0 24 24" fill="none" xmlns="http://www.w3.org/2000/svg">
<path d="M0.867362 9.9169C2.59205 3.74896 8.39904 3.11875 11.9304 2.79624C19.3217 2.40923 22.3431 7.37745 23.1644 9.91719C25.5049 17.8992 22.3431 20.3984 20.8238 21.769C17.6209 24.4297 9.9832 24.3088 5.91798 23.4622C-1.37474 21.6239 -0.364525 13.666 0.867362 9.9169Z" fill="#4594FF"/>
<path d="M9.52247 2.78896C9.91667 3.85324 11.4113 3.87742 12.1094 3.75648C12.208 2.49873 11.822 1.378 11.6166 0.974864C10.9268 -0.18616 10.0152 -0.0732823 9.64565 0.128284C8.7587 0.612044 9.19397 2.10364 9.52247 2.78896Z" fill="#4594FF"/>
<path d="M11.8845 2.74801C11.949 3.6061 13.0089 3.90734 13.5308 3.9507C13.8567 3.04364 13.8095 2.14555 13.7451 1.80989C13.4897 0.824526 12.8174 0.73475 12.5131 0.813033C11.783 1.0009 11.7898 2.1813 11.8845 2.74801Z" fill="#4594FF"/>
<path d="M1.97581 13.9081C2.86277 8.68346 7.51927 8.65754 10.599 8.3449C14.1714 7.98223 16.8815 9.1916 17.9902 10.0382C19.5917 11.4895 19.9374 13.5454 20.3308 14.8758C21.2178 17.8751 20.2487 19.3504 19.7149 19.7132C14.1714 24.309 5.58935 22.0919 3.57729 20.56C1.97581 19.4715 1.68838 15.7222 1.97581 13.9081Z" fill="white"/>
<path d="M13.1603 13.988C13.7539 11.181 18.3953 13.1944 20.58 14.6146C20.8273 15.826 21.1983 18.5244 20.7037 18.6246L15.8809 17.1208C12.6657 16.2436 12.9954 14.8652 13.1603 13.988Z" fill="#4594FF"/>
<path d="M8.07285 13.9234C7.57088 11.3948 3.577 12.9733 1.72949 14.2527L1.83012 17.899L5.8728 16.6572C8.33562 15.9715 8.21228 14.7136 8.07285 13.9234Z" fill="#4594FF"/>
<ellipse cx="6.6571" cy="14.5124" rx="0.739127" ry="0.96752" fill="white"/>
<ellipse cx="14.2948" cy="14.5124" rx="0.739127" ry="0.96752" fill="white"/>
<ellipse cx="10.5993" cy="15.3591" rx="0.985503" ry="0.6047" fill="#4594FF"/>
<path d="M9.73682 17.1734C10.3528 17.5362 11.2972 16.9315 11.4614 16.8105" stroke="#4594FF" stroke-linecap="round"/>
</svg>
