<svg width="24" height="24" viewBox="0 0 24 24" fill="none" xmlns="http://www.w3.org/2000/svg">
<path d="M20.9999 12.2069C20.9999 11.6015 20.9463 11.0268 20.8543 10.4674H12.1953V13.9233H17.1532C16.9309 15.0574 16.2796 16.0153 15.3141 16.6666V18.9655H18.2719C20.0037 17.364 20.9999 15.0038 20.9999 12.2069Z" fill="#4285F4"/>
<path d="M12.1952 21.1954C14.6779 21.1954 16.7546 20.3678 18.2718 18.9655L15.3139 16.6666C14.4864 17.2184 13.4366 17.5555 12.1952 17.5555C9.79671 17.5555 7.76606 15.9387 7.03809 13.7548H3.98828V16.1226C5.49786 19.1264 8.60131 21.1954 12.1952 21.1954Z" fill="#34A853"/>
<path d="M7.03831 13.7547C6.84674 13.203 6.74712 12.6129 6.74712 11.9999C6.74712 11.3869 6.8544 10.7969 7.03831 10.2451V7.87732H3.9885C3.36015 9.1187 3 10.5133 3 11.9999C3 13.4865 3.36015 14.8811 3.9885 16.1225L7.03831 13.7547Z" fill="#FBBC05"/>
<path d="M12.1952 6.44441C13.5515 6.44441 14.7622 6.91185 15.7201 7.82372L18.3408 5.20303C16.7546 3.71644 14.6779 2.80457 12.1952 2.80457C8.60131 2.80457 5.49786 4.87353 3.98828 7.87736L7.03809 10.2452C7.76606 8.06127 9.79671 6.44441 12.1952 6.44441Z" fill="#EA4335"/>
</svg>
