<svg width="25" height="25" viewBox="0 0 25 25" fill="none" xmlns="http://www.w3.org/2000/svg">
<circle cx="12.5" cy="12.5" r="12.5" transform="matrix(-1 0 0 1 25 0)" fill="#AAAAAA"/>
<path d="M13.1704 17.9272L9.33765 14.1175C8.80522 13.5637 8.50678 12.8259 8.50438 12.0576C8.50198 11.2894 8.79581 10.5497 9.32477 9.99255L13.1336 6.15897C13.3674 5.92374 13.685 5.79101 14.0167 5.78998C14.3483 5.78894 14.6667 5.91969 14.902 6.15345C15.1372 6.38721 15.2699 6.70484 15.271 7.03647C15.272 7.36809 15.1413 7.68655 14.9075 7.92177L11.0978 11.7554C11.0199 11.8337 10.9764 11.9398 10.9767 12.0503C10.977 12.1608 11.0213 12.2666 11.0996 12.3445L14.9332 16.1534C15.1684 16.3872 15.3012 16.7048 15.3022 17.0364C15.3032 17.368 15.1725 17.6865 14.9387 17.9217C14.705 18.157 14.3873 18.2897 14.0557 18.2907C13.7241 18.2918 13.4056 18.161 13.1704 17.9272Z" fill="white"/>
</svg>
