<svg width="25" height="25" viewBox="0 0 25 25" fill="none" xmlns="http://www.w3.org/2000/svg">
<path d="M0 12.4999C0 19.4034 5.59644 24.9999 12.5 24.9999C19.4036 24.9999 25 19.4034 25 12.4999C25 5.59632 19.4036 -0.00012207 12.5 -0.00012207C5.59644 -0.00012207 0 5.59632 0 12.4999Z" fill="#AAAAAA"/>
<path d="M13 13C13.5523 13 14 12.5523 14 12C14 11.4477 13.5523 11 13 11C12.4477 11 12 11.4477 12 12C12 12.5523 12.4477 13 13 13Z" fill="white" stroke="white" stroke-linecap="round" stroke-linejoin="round"/>
<path d="M13 6C13.5523 6 14 5.55228 14 5C14 4.44772 13.5523 4 13 4C12.4477 4 12 4.44772 12 5C12 5.55228 12.4477 6 13 6Z" fill="white" stroke="white" stroke-linecap="round" stroke-linejoin="round"/>
<path d="M13 20C13.5523 20 14 19.5523 14 19C14 18.4477 13.5523 18 13 18C12.4477 18 12 18.4477 12 19C12 19.5523 12.4477 20 13 20Z" fill="white" stroke="white" stroke-linecap="round" stroke-linejoin="round"/>
</svg>
