<svg width="25" height="25" viewBox="0 0 25 25" fill="none" xmlns="http://www.w3.org/2000/svg">
<circle cx="12.5" cy="12.5" r="12.5" fill="black" fill-opacity="0.4"/>
<path d="M11.8291 17.9272L15.6619 14.1175C16.1943 13.5637 16.4927 12.8259 16.4951 12.0576C16.4975 11.2894 16.2037 10.5497 15.6747 9.99255L11.8659 6.15897C11.6321 5.92374 11.3145 5.79101 10.9828 5.78998C10.6512 5.78894 10.3328 5.91969 10.0975 6.15345C9.86231 6.38721 9.72958 6.70484 9.72855 7.03647C9.72751 7.36809 9.85826 7.68655 10.092 7.92177L13.9017 11.7554C13.9796 11.8337 14.0232 11.9398 14.0228 12.0503C14.0225 12.1608 13.9782 12.2666 13.8999 12.3445L10.0663 16.1534C9.83109 16.3872 9.69836 16.7048 9.69732 17.0364C9.69629 17.368 9.82703 17.6865 10.0608 17.9217C10.2946 18.157 10.6122 18.2897 10.9438 18.2907C11.2754 18.2918 11.5939 18.161 11.8291 17.9272Z" fill="white"/>
</svg>
