<svg width="25" height="25" viewBox="0 0 25 25" fill="none" xmlns="http://www.w3.org/2000/svg">
<circle cx="12.5" cy="12.5" r="12.5" fill="#AAAAAA"/>
<path d="M11.8296 17.9272L15.6624 14.1175C16.1948 13.5637 16.4932 12.8259 16.4956 12.0576C16.498 11.2894 16.2042 10.5497 15.6752 9.99255L11.8664 6.15897C11.6326 5.92374 11.315 5.79101 10.9833 5.78998C10.6517 5.78894 10.3333 5.91969 10.098 6.15345C9.8628 6.38721 9.73007 6.70484 9.72903 7.03647C9.728 7.36809 9.85874 7.68655 10.0925 7.92177L13.9022 11.7554C13.9801 11.8337 14.0236 11.9398 14.0233 12.0503C14.023 12.1608 13.9787 12.2666 13.9004 12.3445L10.0668 16.1534C9.83158 16.3872 9.69885 16.7048 9.69781 17.0364C9.69677 17.368 9.82752 17.6865 10.0613 17.9217C10.295 18.157 10.6127 18.2897 10.9443 18.2907C11.2759 18.2918 11.5944 18.161 11.8296 17.9272Z" fill="white"/>
</svg>
