<svg width="21" height="21" viewBox="0 0 21 21" fill="none" xmlns="http://www.w3.org/2000/svg">
<g clip-path="url(#clip0_144_1406)">
<path d="M12.7234 4.788C13.7699 3.8955 14.875 2.5585 14.875 0.875V0H6.125V0.875C6.125 2.5585 7.23012 3.89463 8.27662 4.788C4.15975 6.25537 0.875 11.4835 0.875 15.75C0.875 18.6454 3.22962 21 6.125 21H14.875C17.7704 21 20.125 18.6454 20.125 15.75C20.125 11.4835 16.8403 6.25537 12.7234 4.788ZM8.05612 1.75H12.9412C12.4854 2.849 11.2875 3.77125 10.5061 4.2455C9.84813 3.843 8.5365 2.9225 8.057 1.75H8.05612ZM14.875 19.25H6.125C4.19475 19.25 2.625 17.6803 2.625 15.75C2.625 11.2341 6.64125 6.13988 10.4983 6.13988C14.3553 6.13988 18.375 11.235 18.375 15.75C18.375 17.6803 16.8053 19.25 14.875 19.25ZM8.75 11.375C8.75 11.7058 8.98713 11.9858 9.3135 12.04L11.9753 12.4836C13.1486 12.6788 14.0009 13.685 14.0009 14.875C14.0009 16.3223 12.8231 17.5 11.3759 17.5V18.375H9.62588V17.5C8.17863 17.5 7.00088 16.3223 7.00088 14.875H8.75088C8.75088 15.3571 9.14375 15.75 9.62588 15.75H11.3759C11.858 15.75 12.2509 15.3571 12.2509 14.875C12.2509 14.5442 12.0138 14.2642 11.6874 14.21L9.02562 13.7664C7.85225 13.5712 7 12.565 7 11.375C7 9.92775 8.17775 8.75 9.625 8.75V7.875H11.375V8.75C12.8223 8.75 14 9.92775 14 11.375H12.25C12.25 10.8929 11.8571 10.5 11.375 10.5H9.625C9.14287 10.5 8.75 10.8929 8.75 11.375Z" fill="#4896FF"/>
</g>
<defs>
<clipPath id="clip0_144_1406">
<rect width="21" height="21" fill="white"/>
</clipPath>
</defs>
</svg>
