<svg width="21" height="21" viewBox="0 0 21 21" fill="none" xmlns="http://www.w3.org/2000/svg">
<path d="M10.5 0C8.4233 0 6.39323 0.615814 4.66652 1.76957C2.9398 2.92332 1.59399 4.5632 0.799269 6.48182C0.0045495 8.40045 -0.203386 10.5116 0.201759 12.5484C0.606904 14.5852 1.60693 16.4562 3.07538 17.9246C4.54383 19.3931 6.41475 20.3931 8.45156 20.7982C10.4884 21.2034 12.5996 20.9955 14.5182 20.2007C16.4368 19.406 18.0767 18.0602 19.2304 16.3335C20.3842 14.6068 21 12.5767 21 10.5C20.997 7.71615 19.8898 5.04718 17.9213 3.0787C15.9528 1.11022 13.2839 0.00301095 10.5 0ZM10.9375 18.3531V17.2287C10.9375 16.2564 10.5512 15.3239 9.86368 14.6363C9.17613 13.9488 8.2436 13.5625 7.27125 13.5625H7.2625C6.90124 13.5625 6.54352 13.4913 6.20977 13.3531C5.87602 13.2148 5.57278 13.0121 5.31738 12.7566L2.646 10.0835C2.71736 8.69343 3.15649 7.34722 3.9185 6.18244C4.68052 5.01766 5.73812 4.07607 6.98321 3.45387C8.22831 2.83168 9.61627 2.5512 11.0053 2.64109C12.3943 2.73098 13.7345 3.18802 14.889 3.9655C14.6573 4.13554 14.3775 4.22747 14.0901 4.228H12.8354C12.6565 4.228 12.4793 4.26328 12.3141 4.33182C12.1488 4.40036 11.9987 4.50082 11.8723 4.62744C11.746 4.75407 11.6458 4.90437 11.5776 5.06975C11.5093 5.23514 11.4744 5.41235 11.4748 5.59125V6.503C11.4748 6.86386 11.3314 7.20994 11.0762 7.46511C10.8211 7.72027 10.475 7.86362 10.1141 7.86362C9.93515 7.86316 9.75785 7.89802 9.59236 7.96619C9.42688 8.03436 9.27647 8.13451 9.14976 8.2609C9.02304 8.38729 8.9225 8.53744 8.85391 8.70275C8.78531 8.86806 8.75 9.04527 8.75 9.22425V10.136C8.75 10.4969 8.89335 10.8429 9.14852 11.0981C9.40369 11.3533 9.74977 11.4966 10.1106 11.4966H13.7471C14.108 11.4966 14.4541 11.64 14.7092 11.8951C14.9644 12.1503 15.1078 12.4964 15.1078 12.8572V14.1872C15.1078 14.366 15.143 14.5431 15.2115 14.7082C15.2799 14.8734 15.3803 15.0234 15.5068 15.1497L16.2356 15.8786C14.8546 17.3555 12.9565 18.242 10.9375 18.3531Z" fill="#4896FF"/>
</svg>
