<svg width="21" height="21" viewBox="0 0 21 21" fill="none" xmlns="http://www.w3.org/2000/svg">
<g clip-path="url(#clip0_144_1408)">
<path d="M16.1876 8.3125C16.5357 8.3125 16.8695 8.17422 17.1157 7.92808C17.3618 7.68194 17.5001 7.3481 17.5001 7V6.39888C17.4985 5.16641 17.0082 3.9849 16.1367 3.11341C15.2652 2.24193 14.0837 1.75162 12.8512 1.75H11.8126V1.3125C11.8126 0.964403 11.6743 0.630564 11.4282 0.384422C11.182 0.138281 10.8482 0 10.5001 0C10.152 0 9.81817 0.138281 9.57203 0.384422C9.32588 0.630564 9.1876 0.964403 9.1876 1.3125V1.75H8.14898C7.0329 1.74834 5.95347 2.14825 5.10787 2.87668C4.26228 3.60511 3.70697 4.61344 3.54338 5.71747C3.3798 6.8215 3.61885 7.94753 4.21688 8.88987C4.81491 9.83221 5.73199 10.528 6.8006 10.85L9.1876 11.5028V16.625H8.14898C7.61243 16.6243 7.09805 16.4109 6.71865 16.0315C6.33925 15.6521 6.1258 15.1377 6.1251 14.6011V14C6.1251 13.6519 5.98682 13.3181 5.74068 13.0719C5.49454 12.8258 5.1607 12.6875 4.8126 12.6875C4.46451 12.6875 4.13067 12.8258 3.88453 13.0719C3.63838 13.3181 3.5001 13.6519 3.5001 14V14.6011C3.50172 15.8336 3.99204 17.0151 4.86352 17.8866C5.735 18.7581 6.91652 19.2484 8.14898 19.25H9.1876V19.6875C9.1876 20.0356 9.32588 20.3694 9.57203 20.6156C9.81817 20.8617 10.152 21 10.5001 21C10.8482 21 11.182 20.8617 11.4282 20.6156C11.6743 20.3694 11.8126 20.0356 11.8126 19.6875V19.25H12.8512C13.9673 19.2517 15.0467 18.8518 15.8923 18.1233C16.7379 17.3949 17.2932 16.3866 17.4568 15.2825C17.6204 14.1785 17.3814 13.0525 16.7833 12.1101C16.1853 11.1678 15.2682 10.472 14.1996 10.15L11.8126 9.499V4.375H12.8512C13.3878 4.37569 13.9022 4.58915 14.2816 4.96855C14.661 5.34795 14.8744 5.86232 14.8751 6.39888V7C14.8751 7.3481 15.0134 7.68194 15.2595 7.92808C15.5057 8.17422 15.8395 8.3125 16.1876 8.3125ZM13.4594 12.6691C13.921 12.8146 14.3152 13.1206 14.5706 13.5317C14.826 13.9428 14.9257 14.4318 14.8517 14.9101C14.7776 15.3883 14.5347 15.8243 14.1669 16.1389C13.7991 16.4535 13.3308 16.6259 12.8469 16.625H11.8126V12.2194L13.4594 12.6691ZM9.1876 8.78062L7.54085 8.33088C7.07961 8.18552 6.68563 7.87987 6.43018 7.46924C6.17474 7.0586 6.07471 6.57009 6.14819 6.0921C6.22167 5.61412 6.46381 5.17821 6.83079 4.86326C7.19778 4.54831 7.66537 4.37511 8.14898 4.375H9.1876V8.78062Z" fill="#4896FF"/>
</g>
<defs>
<clipPath id="clip0_144_1408">
<rect width="21" height="21" fill="white"/>
</clipPath>
</defs>
</svg>
