<svg width="21" height="21" viewBox="0 0 21 21" fill="none" xmlns="http://www.w3.org/2000/svg">
<g clip-path="url(#clip0_144_1375)">
<path d="M21 8.75007C21 8.6862 20.993 8.62252 20.979 8.5602L19.8415 3.4257C19.6302 2.45116 19.0902 1.57891 18.3121 0.955207C17.534 0.331507 16.5652 -0.00571933 15.568 7.34027e-05H5.432C4.43542 -0.00491436 3.46739 0.33268 2.69004 0.956314C1.91269 1.57995 1.37322 2.45175 1.162 3.4257L0.0210012 8.5602C0.00700829 8.62252 -3.47024e-05 8.6862 1.19822e-06 8.75007V9.62507C-0.000704758 10.477 0.310557 11.2996 0.875001 11.9377V16.6251C0.876391 17.785 1.33777 18.897 2.15794 19.7171C2.97811 20.5373 4.09011 20.9987 5.25 21.0001H15.75C16.9099 20.9987 18.0219 20.5373 18.8421 19.7171C19.6622 18.897 20.1236 17.785 20.125 16.6251V11.9377C20.6894 11.2996 21.0007 10.477 21 9.62507V8.75007ZM1.75 8.84545L2.87 3.80545C2.99691 3.22117 3.32064 2.6982 3.78701 2.32405C4.25338 1.9499 4.8341 1.74728 5.432 1.75007H6.125V4.37507C6.125 4.60714 6.21719 4.8297 6.38128 4.99379C6.54538 5.15789 6.76794 5.25007 7 5.25007C7.23207 5.25007 7.45463 5.15789 7.61872 4.99379C7.78281 4.8297 7.875 4.60714 7.875 4.37507V1.75007H13.125V4.37507C13.125 4.60714 13.2172 4.8297 13.3813 4.99379C13.5454 5.15789 13.7679 5.25007 14 5.25007C14.2321 5.25007 14.4546 5.15789 14.6187 4.99379C14.7828 4.8297 14.875 4.60714 14.875 4.37507V1.75007H15.568C16.1659 1.74728 16.7466 1.9499 17.213 2.32405C17.6794 2.6982 18.0031 3.22117 18.13 3.80545L19.25 8.84545V9.62507C19.25 10.0892 19.0656 10.5343 18.7374 10.8625C18.4093 11.1907 17.9641 11.3751 17.5 11.3751H16.625C16.1609 11.3751 15.7158 11.1907 15.3876 10.8625C15.0594 10.5343 14.875 10.0892 14.875 9.62507C14.875 9.39301 14.7828 9.17045 14.6187 9.00636C14.4546 8.84226 14.2321 8.75007 14 8.75007C13.7679 8.75007 13.5454 8.84226 13.3813 9.00636C13.2172 9.17045 13.125 9.39301 13.125 9.62507C13.125 10.0892 12.9406 10.5343 12.6124 10.8625C12.2842 11.1907 11.8391 11.3751 11.375 11.3751H9.625C9.16087 11.3751 8.71575 11.1907 8.38756 10.8625C8.05938 10.5343 7.875 10.0892 7.875 9.62507C7.875 9.39301 7.78281 9.17045 7.61872 9.00636C7.45463 8.84226 7.23207 8.75007 7 8.75007C6.76794 8.75007 6.54538 8.84226 6.38128 9.00636C6.21719 9.17045 6.125 9.39301 6.125 9.62507C6.125 10.0892 5.94063 10.5343 5.61244 10.8625C5.28425 11.1907 4.83913 11.3751 4.375 11.3751H3.5C3.03587 11.3751 2.59075 11.1907 2.26256 10.8625C1.93438 10.5343 1.75 10.0892 1.75 9.62507V8.84545ZM15.75 19.2501H5.25C4.55381 19.2501 3.88613 18.9735 3.39385 18.4812C2.90156 17.9889 2.625 17.3213 2.625 16.6251V13.0139C2.91078 13.0879 3.2048 13.1253 3.5 13.1251H4.375C4.87184 13.1253 5.36301 13.0195 5.81569 12.8148C6.26837 12.61 6.67214 12.311 7 11.9377C7.32786 12.311 7.73163 12.61 8.18431 12.8148C8.63699 13.0195 9.12816 13.1253 9.625 13.1251H11.375C11.8718 13.1253 12.363 13.0195 12.8157 12.8148C13.2684 12.61 13.6721 12.311 14 11.9377C14.3279 12.311 14.7316 12.61 15.1843 12.8148C15.637 13.0195 16.1282 13.1253 16.625 13.1251H17.5C17.7952 13.1253 18.0892 13.0879 18.375 13.0139V16.6251C18.375 17.3213 18.0984 17.9889 17.6062 18.4812C17.1139 18.9735 16.4462 19.2501 15.75 19.2501Z" fill="#767676"/>
</g>
<defs>
<clipPath id="clip0_144_1375">
<rect width="21" height="21" fill="white"/>
</clipPath>
</defs>
</svg>
