<svg width="21" height="21" viewBox="0 0 21 21" fill="none" xmlns="http://www.w3.org/2000/svg">
<path d="M14.3182 11.3751C13.8736 11.9185 13.2971 12.3595 12.6344 12.6632C11.9717 12.967 11.2409 13.1251 10.5 13.1251C9.75906 13.1251 9.02829 12.967 8.36557 12.6632C7.70285 12.3595 7.12638 11.9185 6.68182 11.3751C6.30766 11.8374 5.83684 12.2268 5.2968 12.5206C4.75676 12.8144 4.15832 13.0067 3.53637 13.0863C2.91442 13.1659 2.28141 13.1311 1.67425 12.9841C1.0671 12.8371 0.49795 12.5807 0 12.23V16.6251C0.00151568 17.785 0.504842 18.897 1.39957 19.7172C2.29431 20.5373 3.50739 20.9987 4.77273 21.0001H16.2273C17.4926 20.9987 18.7057 20.5373 19.6004 19.7172C20.4952 18.897 20.9985 17.785 21 16.6251V12.2274C20.5022 12.5782 19.9332 12.8348 19.3262 12.982C18.7191 13.1292 18.0862 13.1642 17.4642 13.0849C16.8423 13.0055 16.2438 12.8135 15.7037 12.52C15.1635 12.2264 14.6925 11.8372 14.3182 11.3751Z" fill="#4896FF"/>
<path d="M19.7591 2.73968C19.5743 1.96014 19.1029 1.26251 18.4237 0.763723C17.7445 0.264939 16.899 -0.00467877 16.0287 6.14535e-05H15.2727V2.62505C15.2727 2.85712 15.1722 3.07968 14.9931 3.24377C14.8141 3.40786 14.5713 3.50005 14.3182 3.50005C14.065 3.50005 13.8222 3.40786 13.6432 3.24377C13.4642 3.07968 13.3636 2.85712 13.3636 2.62505V6.14535e-05H7.63636V2.62505C7.63636 2.85712 7.5358 3.07968 7.35678 3.24377C7.17777 3.40786 6.93498 3.50005 6.68182 3.50005C6.42866 3.50005 6.18586 3.40786 6.00685 3.24377C5.82784 3.07968 5.72727 2.85712 5.72727 2.62505V6.14535e-05H4.97127C4.1009 -0.00463596 3.25524 0.265107 2.57606 0.764063C1.89688 1.26302 1.42548 1.96085 1.24091 2.74055L0.021 7.78754L0 8.76754C0.00125353 9.11226 0.0765649 9.45337 0.221634 9.77141C0.366704 10.0894 0.57869 10.3782 0.845489 10.6211C1.38432 11.1118 2.1137 11.3861 2.87318 11.3838C3.24924 11.3826 3.62137 11.3136 3.96832 11.1806C4.31527 11.0476 4.63026 10.8533 4.89528 10.6087C5.16031 10.3642 5.37019 10.0742 5.51294 9.75524C5.6557 9.43632 5.72853 9.09475 5.72727 8.75004C5.72727 8.51797 5.82784 8.29541 6.00685 8.13132C6.18586 7.96723 6.42866 7.87504 6.68182 7.87504C6.93498 7.87504 7.17777 7.96723 7.35678 8.13132C7.5358 8.29541 7.63636 8.51797 7.63636 8.75004C7.63636 9.44623 7.93807 10.1139 8.4751 10.6062C9.01214 11.0985 9.74052 11.375 10.5 11.375C11.2595 11.375 11.9879 11.0985 12.5249 10.6062C13.0619 10.1139 13.3636 9.44623 13.3636 8.75004C13.3636 8.51797 13.4642 8.29541 13.6432 8.13132C13.8222 7.96723 14.065 7.87504 14.3182 7.87504C14.5713 7.87504 14.8141 7.96723 14.9931 8.13132C15.1722 8.29541 15.2727 8.51797 15.2727 8.75004C15.2727 9.44623 15.5744 10.1139 16.1115 10.6062C16.6485 11.0985 17.3769 11.375 18.1364 11.375C18.8958 11.375 19.6242 11.0985 20.1613 10.6062C20.6983 10.1139 21 9.44623 21 8.75004V7.96866L19.7591 2.73968Z" fill="#4896FF"/>
</svg>
