<svg width="25" height="25" viewBox="0 0 25 25" fill="none" xmlns="http://www.w3.org/2000/svg">
<circle cx="12.5" cy="12.5" r="12.5" transform="matrix(-1 0 0 1 25 0)" fill="black" fill-opacity="0.4"/>
<path d="M13.1709 17.9272L9.33813 14.1175C8.80571 13.5637 8.50727 12.8259 8.50487 12.0576C8.50247 11.2894 8.7963 10.5497 9.32525 9.99255L13.1341 6.15897C13.3679 5.92374 13.6855 5.79101 14.0172 5.78998C14.3488 5.78894 14.6672 5.91969 14.9025 6.15345C15.1377 6.38721 15.2704 6.70484 15.2715 7.03647C15.2725 7.36809 15.1417 7.68655 14.908 7.92177L11.0983 11.7554C11.0204 11.8337 10.9768 11.9398 10.9772 12.0503C10.9775 12.1608 11.0218 12.2666 11.1001 12.3445L14.9337 16.1534C15.1689 16.3872 15.3016 16.7048 15.3027 17.0364C15.3037 17.368 15.173 17.6865 14.9392 17.9217C14.7054 18.157 14.3878 18.2897 14.0562 18.2907C13.7246 18.2918 13.4061 18.161 13.1709 17.9272Z" fill="white"/>
</svg>
