<svg width="20" height="20" viewBox="0 0 20 20" fill="none" xmlns="http://www.w3.org/2000/svg">
<path d="M14 6.66663C15.3807 6.66663 16.5 5.54734 16.5 4.16663C16.5 2.78591 15.3807 1.66663 14 1.66663C12.6193 1.66663 11.5 2.78591 11.5 4.16663C11.5 5.54734 12.6193 6.66663 14 6.66663Z" stroke="#767676" stroke-width="1.5" stroke-linecap="round" stroke-linejoin="round"/>
<path d="M4 12.5C5.38071 12.5 6.5 11.3807 6.5 10C6.5 8.61929 5.38071 7.5 4 7.5C2.61929 7.5 1.5 8.61929 1.5 10C1.5 11.3807 2.61929 12.5 4 12.5Z" stroke="#767676" stroke-width="1.5" stroke-linecap="round" stroke-linejoin="round"/>
<path d="M14 18.3334C15.3807 18.3334 16.5 17.2141 16.5 15.8334C16.5 14.4527 15.3807 13.3334 14 13.3334C12.6193 13.3334 11.5 14.4527 11.5 15.8334C11.5 17.2141 12.6193 18.3334 14 18.3334Z" stroke="#767676" stroke-width="1.5" stroke-linecap="round" stroke-linejoin="round"/>
<path d="M6.1582 11.2583L11.8499 14.575" stroke="#767676" stroke-width="1.5" stroke-linecap="round" stroke-linejoin="round"/>
<path d="M11.8415 5.42505L6.1582 8.74172" stroke="#767676" stroke-width="1.5" stroke-linecap="round" stroke-linejoin="round"/>
</svg>
