<svg width="21" height="21" viewBox="0 0 21 21" fill="none" xmlns="http://www.w3.org/2000/svg">
<g clip-path="url(#clip0_144_1366)">
<path d="M10.5 0C8.4233 0 6.39323 0.615814 4.66652 1.76957C2.9398 2.92332 1.59399 4.5632 0.79927 6.48182C0.0045495 8.40045 -0.203386 10.5116 0.201759 12.5484C0.606904 14.5853 1.60693 16.4562 3.07538 17.9246C4.54383 19.3931 6.41476 20.3931 8.45156 20.7982C10.4884 21.2034 12.5996 20.9955 14.5182 20.2007C16.4368 19.406 18.0767 18.0602 19.2304 16.3335C20.3842 14.6068 21 12.5767 21 10.5C20.997 7.71615 19.8898 5.04718 17.9213 3.0787C15.9528 1.11022 13.2839 0.00301095 10.5 0ZM19.25 10.5C19.251 12.2147 18.7451 13.8915 17.7958 15.3195L16.7528 14.2756C16.671 14.1936 16.625 14.0826 16.625 13.9668V13.125C16.625 12.4288 16.3484 11.7611 15.8562 11.2688C15.3639 10.7766 14.6962 10.5 14 10.5H11.375C11.1429 10.5 10.9204 10.4078 10.7563 10.2437C10.5922 10.0796 10.5 9.85707 10.5 9.625V9.1875C10.5 9.07147 10.5461 8.96019 10.6281 8.87814C10.7102 8.79609 10.8215 8.75 10.9375 8.75C11.5177 8.75 12.0741 8.51953 12.4843 8.1093C12.8945 7.69906 13.125 7.14266 13.125 6.5625V5.6875C13.125 5.57147 13.1711 5.46019 13.2531 5.37814C13.3352 5.29609 13.4465 5.25 13.5625 5.25H14.7691C15.3487 5.24835 15.9043 5.0182 16.3153 4.6095L16.6451 4.27963C17.4704 5.09169 18.1258 6.05994 18.573 7.1279C19.0202 8.19586 19.2504 9.34218 19.25 10.5ZM1.79288 11.3426L4.55613 14.1059C4.79929 14.3506 5.08864 14.5446 5.40737 14.6766C5.7261 14.8087 6.06788 14.8761 6.41288 14.875H8.75C8.98207 14.875 9.20463 14.9672 9.36872 15.1313C9.53282 15.2954 9.625 15.5179 9.625 15.75V19.2054C7.61267 19 5.73335 18.1048 4.30582 16.6717C2.87828 15.2385 1.99044 13.3557 1.79288 11.3426ZM11.375 19.2054V15.75C11.375 15.0538 11.0984 14.3861 10.6062 13.8938C10.1139 13.4016 9.4462 13.125 8.75 13.125H6.41288C6.29783 13.1251 6.1839 13.1025 6.0776 13.0585C5.9713 13.0145 5.87472 12.95 5.79338 12.8686L1.89263 8.96788C2.14303 7.54443 2.7429 6.20541 3.63841 5.07096C4.53392 3.93651 5.69705 3.04212 7.02345 2.46804C8.34985 1.89395 9.79802 1.65814 11.238 1.78175C12.678 1.90535 14.0648 2.38452 15.274 3.17625L15.078 3.37225C14.9956 3.45348 14.8848 3.49932 14.7691 3.5H13.5625C12.9823 3.5 12.4259 3.73047 12.0157 4.1407C11.6055 4.55094 11.375 5.10734 11.375 5.6875V6.5625C11.375 6.67853 11.3289 6.78981 11.2469 6.87186C11.1648 6.95391 11.0535 7 10.9375 7C10.3573 7 9.80094 7.23047 9.39071 7.64071C8.98047 8.05094 8.75 8.60734 8.75 9.1875V9.625C8.75 10.3212 9.02657 10.9889 9.51885 11.4812C10.0111 11.9734 10.6788 12.25 11.375 12.25H14C14.2321 12.25 14.4546 12.3422 14.6187 12.5063C14.7828 12.6704 14.875 12.8929 14.875 13.125V13.9668C14.8767 14.5463 15.1068 15.1019 15.5155 15.5129L16.6854 16.6828C15.2604 18.1127 13.3837 19.0042 11.375 19.2054Z" fill="#767676"/>
</g>
<defs>
<clipPath id="clip0_144_1366">
<rect width="21" height="21" fill="white"/>
</clipPath>
</defs>
</svg>
