<svg width="34" height="34" viewBox="0 0 34 34" fill="none" xmlns="http://www.w3.org/2000/svg">
<circle cx="16.5825" cy="16.7485" r="16.4175" transform="rotate(-90 16.5825 16.7485)" fill="#097CFB" fill-opacity="0.53"/>
<path d="M23.9662 18.0025L18.9626 12.9686C18.2351 12.2693 17.2661 11.8773 16.2571 11.8741C15.248 11.871 14.2766 12.2569 13.5448 12.9516L8.5098 17.9542C8.20085 18.2612 8.02653 18.6784 8.02517 19.114C8.02381 19.5495 8.19553 19.9678 8.50255 20.2767C8.80957 20.5857 9.22675 20.76 9.6623 20.7614C10.0979 20.7627 10.5161 20.591 10.8251 20.284L15.8601 15.2803C15.963 15.178 16.1024 15.1208 16.2475 15.1213C16.3926 15.1217 16.5316 15.1798 16.6339 15.2827L21.6365 20.3177C21.9435 20.6267 22.3607 20.801 22.7962 20.8024C23.2318 20.8037 23.65 20.632 23.959 20.325C24.2679 20.018 24.4423 19.6008 24.4436 19.1652C24.445 18.7297 24.2733 18.3114 23.9662 18.0025Z" fill="white" fill-opacity="0.7"/>
</svg>
