<svg width="35" height="35" viewBox="0 0 35 35" fill="none" xmlns="http://www.w3.org/2000/svg">
<circle cx="17.582" cy="17.5831" r="16.5" transform="rotate(-90 17.582 17.5831)" fill="black" fill-opacity="0.3"/>
<path d="M25.0033 18.8432L19.9745 13.784C19.2434 13.0812 18.2695 12.6873 17.2554 12.6841C16.2413 12.6809 15.265 13.0688 14.5295 13.767L9.46915 18.7947C9.15865 19.1033 8.98345 19.5226 8.98208 19.9603C8.98072 20.3981 9.1533 20.8184 9.46187 21.1289C9.77043 21.4394 10.1897 21.6146 10.6275 21.616C11.0652 21.6173 11.4856 21.4448 11.7961 21.1362L16.8564 16.1074C16.9598 16.0046 17.0999 15.9471 17.2457 15.9476C17.3916 15.948 17.5313 16.0064 17.6341 16.1098L22.6618 21.1701C22.9704 21.4806 23.3896 21.6558 23.8274 21.6572C24.2651 21.6586 24.6855 21.486 24.996 21.1774C25.3065 20.8688 25.4817 20.4496 25.4831 20.0118C25.4844 19.5741 25.3118 19.1537 25.0033 18.8432Z" fill="white" fill-opacity="0.7"/>
</svg>
