<svg width="38" height="38" viewBox="0 0 38 38" fill="none" xmlns="http://www.w3.org/2000/svg">
<path d="M1.37332 15.7015C4.10408 5.93563 13.2985 4.93779 18.8898 4.42716C30.5926 3.8144 35.3765 11.6807 36.6769 15.702C40.3828 28.3402 35.3766 32.2972 32.971 34.4674C27.8998 38.6801 15.8067 38.4887 9.37013 37.1483C-2.17668 34.2377 -0.577165 21.6377 1.37332 15.7015Z" fill="#767676"/>
<path d="M15.077 4.41586C15.7012 6.10096 18.0678 6.13925 19.173 5.94776C19.3291 3.95631 18.7179 2.18184 18.3928 1.54353C17.3005 -0.294753 15.8572 -0.11603 15.2721 0.203117C13.8677 0.96907 14.5569 3.33076 15.077 4.41586Z" fill="#767676"/>
<path d="M18.8169 4.35174C18.919 5.71037 20.5972 6.18733 21.4235 6.25598C21.9395 4.81981 21.8648 3.39784 21.7629 2.86637C21.3584 1.30621 20.2939 1.16407 19.8122 1.28801C18.6561 1.58548 18.667 3.45444 18.8169 4.35174Z" fill="#767676"/>
<path d="M3.12866 22.0208C4.533 13.7485 11.9058 13.7074 16.782 13.2124C22.4384 12.6382 26.7294 14.553 28.4848 15.8934C31.0204 18.1913 31.5678 21.4466 32.1907 23.553C33.5951 28.3019 32.0607 30.6378 31.2155 31.2123C22.4384 38.4888 8.85008 34.9785 5.66433 32.553C3.12865 30.8296 2.67355 24.8931 3.12866 22.0208Z" fill="white"/>
<path d="M20.8364 22.1479C21.7763 17.7034 29.1252 20.8913 32.5843 23.14C32.9759 25.058 33.5633 29.3305 32.7801 29.4892L25.144 27.1082C20.0533 25.7193 20.5754 23.5368 20.8364 22.1479Z" fill="#767676"/>
<path d="M12.7823 22.0456C11.9875 18.0419 5.66387 20.5413 2.73864 22.567L2.89797 28.3403L9.29889 26.3742C13.1984 25.2884 13.0031 23.2968 12.7823 22.0456Z" fill="#767676"/>
<ellipse cx="10.5406" cy="22.9786" rx="1.17028" ry="1.53191" fill="white"/>
<ellipse cx="22.6334" cy="22.9786" rx="1.17028" ry="1.53191" fill="white"/>
<ellipse cx="16.7822" cy="24.319" rx="1.56038" ry="0.957441" fill="#767676"/>
<path d="M15.4166 27.1913C16.3919 27.7658 17.8872 26.8084 18.1473 26.6169" stroke="#767676" stroke-linecap="round"/>
</svg>
